Coordinates
version=1
nRows=5
nColumns=40
inDegrees=yes

Units are S.I. units (second, meters, Newtons, ...)
Angles are in degrees.

endheader
time	pelvis_tilt	pelvis_list	pelvis_rotation	pelvis_tx	pelvis_ty	pelvis_tz	hip_flexion_r	hip_adduction_r	hip_rotation_r	knee_angle_r	knee_angle_r_beta	ankle_angle_r	subtalar_angle_r	mtp_angle_r	hip_flexion_l	hip_adduction_l	hip_rotation_l	knee_angle_l	knee_angle_l_beta	ankle_angle_l	subtalar_angle_l	mtp_angle_l	lumbar_extension	lumbar_bending	lumbar_rotation	arm_flex_r	arm_add_r	arm_rot_r	elbow_flex_r	pro_sup_r	wrist_flex_r	wrist_dev_r	arm_flex_l	arm_add_l	arm_rot_l	elbow_flex_l	pro_sup_l	wrist_flex_l	wrist_dev_l
     58.79000000	     -4.87417298	     -2.76674332	     -2.28245865	      1.08290214	      0.91722716	      0.44151348	     29.73672841	     -2.53338450	    -14.53198714	     11.29513190	     11.29513190	      3.54794697	      5.99897461	     12.38742640	     -1.93648931	     -2.62615378	    -13.20256560	     11.45878296	     11.45878296	     18.93073970	     -3.81641178	     -5.59759198	    -10.94521412	      6.07700349	      0.09540379	    -17.43013815	    -12.32900317	    -14.82855182	     22.13382790	     47.34340825	      0.00000000	      0.00000000	     26.97630082	    -20.36866758	     -8.27018533	     88.23737136	     47.77797196	      0.00000000	      0.00000000
     58.80157143	     -4.89052103	     -3.10874561	     -2.01679949	      1.08432687	      0.91483241	      0.44344641	     29.24922677	     -1.91625428	    -15.41615374	     10.85358249	     10.85358249	      2.72337581	      6.57222528	     11.05663026	     -2.19566327	     -3.45396660	    -14.05155851	     12.52499851	     12.52499851	     20.23429330	     -2.12058327	     -5.65137163	    -10.69129397	      6.39992798	     -0.07008852	    -19.86459105	    -12.02379048	    -15.91050703	     24.43586238	     47.27739581	      0.00000000	      0.00000000	     26.82393404	    -20.55792046	     -8.31474665	     91.35750276	     47.88171506	      0.00000000	      0.00000000
     58.81314286	     -4.96621663	     -3.29575214	     -1.72802645	      1.08567421	      0.91272607	      0.44528334	     29.04132107	     -1.52812913	    -15.73111494	     11.10556561	     11.10556561	      2.25660389	      6.42183284	     10.98907014	     -2.70799596	     -3.85609406	    -13.69610794	     12.80297136	     12.80297136	     20.71383687	     -2.16174433	     -5.79108768	    -10.22742446	      6.61456539	     -0.40653193	    -21.17756336	    -11.86567606	    -15.95547015	     23.97886925	     47.28655428	      0.00000000	      0.00000000	     27.22900697	    -20.72845801	     -8.49013200	     91.79283578	     47.90583305	      0.00000000	      0.00000000
     58.82471429	     -5.04401482	     -3.70761459	     -1.52537418	      1.08713572	      0.91040657	      0.44778054	     28.79517246	     -0.83653746	    -15.74535385	     11.39629739	     11.39629739	     -0.12928178	      5.53357308	      5.19421163	     -2.53585492	     -4.91343418	    -14.39036501	     14.65585169	     14.65585169	     22.39696464	     -0.76794976	     -4.93633863	     -9.94602198	      6.99125960	     -0.25859950	    -22.67284946	    -11.52231811	    -16.40313196	     24.52054613	     47.24682892	      0.00000000	      0.00000000	     27.13849476	    -20.49025398	     -8.57408033	     94.18039310	     48.01044696	      0.00000000	      0.00000000
     58.83628571	     -5.00122451	     -3.84024895	     -1.46411495	      1.08898339	      0.90893457	      0.45027504	     28.57451388	     -0.49425192	    -15.57483233	     12.21005956	     12.21005956	     -1.74233828	      4.77679364	      1.24432580	     -2.96827934	     -5.33649065	    -14.15933457	     15.48875621	     15.48875621	     23.14121763	     -1.03954757	     -4.08063557	     -9.69001078	      7.08388065	     -0.17490079	    -23.39675052	    -11.31775452	    -16.34608159	     23.70497382	     47.23378546	      0.00000000	      0.00000000	     27.15666904	    -20.21090118	     -8.77556987	     95.02106893	     48.09661853	      0.00000000	      0.00000000
